<?xml version="1.0" encoding="utf-8"?>
<svg width="309px" height="152.208px" viewBox="0 0 309 152.208" version="1.1" xmlns:xlink="http://www.w3.org/1999/xlink" xmlns="http://www.w3.org/2000/svg">
  <defs>
    <path d="M0 0L309 0L309 152.208L0 152.208L0 0Z" id="path_1" />
    <clipPath id="clip_1">
      <use xlink:href="#path_1" clip-rule="evenodd" fill-rule="evenodd" />
    </clipPath>
  </defs>
  <g id="Sithu" clip-path="url(#clip_1)">
    <g transform="translate(0.13200378, 31.391998)" id="Sithu">
      <path d="M88.704 78.336Q86.112 76.752 80.352 75.168Q74.592 73.584 67.464 71.856Q60.336 70.128 52.848 68.112Q45.36 66.096 39.384 63.504Q33.408 60.912 29.88 57.6Q26.352 54.288 27.216 50.112Q27.792 46.944 31.68 43.776Q35.568 40.608 41.472 37.728Q47.376 34.848 54.864 32.4Q62.352 29.952 70.2 28.08Q78.048 26.208 85.752 25.2Q93.456 24.192 99.864 24.12Q106.272 24.048 110.88 25.2Q115.488 26.352 117.072 28.8Q118.08 30.528 118.224 32.4Q118.368 34.272 117.864 36.072Q117.36 37.872 116.352 39.528Q115.344 41.184 114.048 42.48Q112.32 44.208 109.008 46.512Q105.696 48.816 101.52 51.408Q97.344 54 92.736 56.52Q88.128 59.04 83.736 61.128Q79.344 63.216 75.672 64.656Q72 66.096 69.696 66.384Q67.824 66.672 67.392 65.232Q66.96 63.792 68.688 62.928Q70.272 62.064 72.36 61.56Q74.448 61.056 76.176 60.336Q78.192 59.616 81.792 57.96Q85.392 56.304 89.568 54.216Q93.744 52.128 98.136 49.536Q102.528 46.944 106.128 44.28Q109.728 41.616 112.104 39.024Q114.48 36.432 114.768 34.128Q114.912 32.544 114.48 31.32Q114.048 30.096 112.752 29.376Q111.312 28.512 109.656 28.368Q108 28.224 106.416 28.224Q89.424 27.792 73.44 30.888Q57.456 33.984 42.192 41.472Q40.896 42.048 39.24 42.912Q37.584 43.776 36 44.784Q34.416 45.792 33.048 47.016Q31.68 48.24 31.104 49.536Q29.52 52.848 32.904 55.656Q36.288 58.464 42.264 60.84Q48.24 63.216 55.872 65.232Q63.504 67.248 70.56 69.048Q77.616 70.848 83.16 72.432Q88.704 74.016 90.432 75.456Q93.456 78.048 92.016 81.936Q91.296 83.808 89.928 85.032Q88.56 86.256 86.904 87.192Q85.248 88.128 83.448 88.848Q81.648 89.568 79.92 90.144Q67.536 94.896 55.152 98.928Q42.768 102.96 29.808 105.984Q28.368 106.416 25.56 106.992Q22.752 107.568 19.296 108.288Q15.84 109.008 12.024 109.656Q8.208 110.304 4.896 110.88Q1.584 111.456 -1.08 111.816Q-3.744 112.176 -4.896 112.032Q-5.616 112.032 -6.048 111.384Q-6.48 110.736 -6.48 110.016Q-6.48 109.152 -5.112 108.72Q-3.744 108.288 -2.016 108Q-0.288 107.712 1.368 107.568Q3.024 107.424 3.744 107.424Q21.168 105.408 38.736 100.44Q56.304 95.472 72.72 89.28Q73.728 88.848 76.824 87.768Q79.92 86.688 83.016 85.176Q86.112 83.664 88.056 81.864Q90 80.064 88.704 78.336ZM119.808 70.128Q116.784 74.736 114.696 78.336Q112.608 81.936 112.248 84.312Q111.888 86.688 113.4 87.552Q114.912 88.416 118.944 87.696Q122.832 86.976 126.432 85.536Q130.032 84.096 133.56 82.296Q137.088 80.496 140.688 78.408Q144.288 76.32 148.32 74.304Q148.896 74.016 149.472 74.304Q150.048 74.592 150.336 75.168Q150.624 75.744 150.48 76.464Q150.336 77.184 149.472 77.616Q145.152 80.064 141.624 81.936Q138.096 83.808 134.856 85.32Q131.616 86.832 128.376 88.128Q125.136 89.424 121.104 90.864Q116.928 92.448 113.184 91.44Q109.296 90.432 108.864 87.264Q108.432 84.096 109.728 80.28Q111.024 76.464 113.328 72.936Q115.632 69.408 117.216 67.824Q118.368 66.816 119.592 67.752Q120.816 68.688 119.808 70.128ZM123.984 63.216Q122.832 64.368 121.68 63.36Q120.528 62.352 121.536 60.912Q122.832 59.328 124.704 58.032Q125.568 57.168 126.504 57.6Q127.44 58.032 127.728 58.752Q128.016 59.616 126.72 60.912Q126 61.488 125.352 62.064Q124.704 62.64 123.984 63.216ZM180 38.448Q175.968 42.912 172.152 47.52Q168.336 52.128 164.448 56.736Q161.28 60.48 156.168 67.032Q151.056 73.584 145.512 80.784Q139.968 87.984 134.928 94.608Q129.888 101.232 126.864 104.976Q123.552 108.72 120.384 113.256Q117.216 117.792 113.616 121.104Q113.04 121.536 112.32 121.68Q111.6 121.824 111.168 121.104Q110.304 120.528 110.52 119.952Q110.736 119.376 111.168 118.8Q114.048 114.912 118.08 109.728Q122.112 104.544 126.576 98.712Q131.04 92.88 135.864 86.688Q140.688 80.496 145.224 74.736Q149.76 68.976 153.864 63.864Q157.968 58.752 161.136 55.008Q160.704 54.432 160.488 53.568Q160.272 52.704 161.424 52.416Q162.864 51.408 163.296 49.824Q163.728 48.24 163.296 46.656Q162.864 44.928 161.352 43.488Q159.84 42.048 157.968 40.968Q156.096 39.888 154.008 39.168Q151.92 38.448 150.336 37.998Q145.584 36.7987 140.616 37.1734Q135.648 37.548 130.752 36.9472Q129.312 36.7988 129.168 35.298L130.32 33.408Q133.488 33.696 136.584 33.336Q139.68 32.976 142.992 33.264Q151.776 33.984 160.56 34.272Q169.344 34.56 178.128 34.848Q179.856 33.264 180.648 32.472Q181.44 31.68 182.088 31.032Q182.736 30.384 183.456 29.52Q184.176 28.656 185.616 26.928Q188.64 23.472 191.808 19.584Q194.976 15.696 198.432 12.672Q199.728 11.52 200.736 12.6Q201.744 13.68 200.88 15.12Q199.728 16.848 197.424 19.368Q195.12 21.888 192.456 24.552Q189.792 27.216 187.056 29.952Q184.32 32.688 182.448 34.848L186.192 35.1472Q189.216 35.298 194.256 35.3734Q199.296 35.4487 204.624 35.523Q209.952 35.5972 214.56 35.8222Q219.168 36.0472 221.616 36.4972Q223.344 36.7987 223.416 38.3434Q223.488 39.888 221.616 40.176Q220.032 40.32 216.936 40.32Q213.84 40.32 209.952 40.104Q206.064 39.888 201.672 39.672Q197.28 39.456 193.104 39.168Q188.928 38.88 185.472 38.736Q182.016 38.592 180 38.448ZM159.264 37.872Q162.288 39.024 164.664 41.904Q167.04 44.784 167.04 48.096L175.248 38.448Q171.36 37.872 167.256 37.872Q163.152 37.872 159.264 37.872ZM244.8 77.328Q244.08 78.048 243.072 78.768Q242.064 79.488 240.912 80.208Q238.464 81.792 235.656 83.592Q232.848 85.392 229.68 86.976Q226.512 88.56 223.272 89.784Q220.032 91.008 217.008 91.296Q214.272 91.584 211.68 90.576Q209.088 89.568 207.216 87.552Q204.912 84.96 205.056 82.08Q205.2 79.2 205.848 76.608Q206.496 74.016 206.928 71.856Q207.36 69.696 205.776 68.4Q204.48 67.392 201.6 68.112Q198.72 68.832 195.552 70.2Q192.384 71.568 189.432 73.152Q186.48 74.736 185.184 75.6Q180 78.768 175.752 82.512Q171.504 86.256 166.752 89.712Q165.456 90.72 164.304 89.784Q163.152 88.848 163.872 87.552Q164.16 86.832 164.952 86.04Q165.744 85.248 166.176 84.528Q168.192 81.792 170.136 78.624Q172.08 75.456 174.528 71.136Q173.088 70.272 173.304 69.48Q173.52 68.688 174.384 67.968Q175.248 67.248 176.472 66.744Q177.696 66.24 178.272 65.952Q185.184 56.88 192.528 48.24Q199.872 39.6 207.936 31.68Q216 23.76 224.928 16.92Q233.856 10.08 243.936 4.464Q245.376 3.6 247.176 2.66399Q248.976 1.72801 250.92 1.008Q252.864 0.28801 254.808 0.071991Q256.752 -0.144005 258.48 0.719994Q259.488 1.152 259.488 2.448Q259.488 4.896 258.336 7.41599Q257.184 9.93599 255.456 12.24Q253.728 14.544 251.712 16.632Q249.696 18.72 247.968 20.16Q232.272 33.696 215.568 46.368Q198.864 59.04 180.432 68.688L174.096 78.768Q175.392 77.616 177.984 75.96Q180.576 74.304 183.744 72.432Q186.912 70.56 190.368 68.832Q193.824 67.104 197.064 65.952Q200.304 64.8 202.968 64.512Q205.632 64.224 207.216 65.232Q210.24 67.248 210.456 69.696Q210.672 72.144 210.024 74.808Q209.376 77.472 208.8 80.064Q208.224 82.656 209.52 84.816Q210.96 86.976 213.192 87.48Q215.424 87.984 217.728 87.552Q221.04 86.976 225.504 85.032Q229.968 83.088 236.592 79.056Q238.176 77.904 239.688 76.68Q241.2 75.456 242.784 74.448Q244.224 73.584 245.088 74.808Q245.952 76.032 244.8 77.328ZM185.904 61.488Q193.536 57.744 201.528 52.416Q209.52 47.088 217.368 41.04Q225.216 34.992 232.632 28.728Q240.048 22.464 246.528 16.848Q249.408 14.256 252.216 11.088Q255.024 7.91999 255.744 3.744Q254.88 3.45601 253.656 3.744Q252.432 4.03198 251.208 4.53599Q249.984 5.03999 248.904 5.616Q247.824 6.192 247.104 6.62399Q239.04 11.52 231.048 17.208Q223.056 22.896 215.568 29.304Q208.08 35.712 201.312 42.768Q194.544 49.824 188.928 57.6Q188.208 58.608 187.488 59.544Q186.768 60.48 185.904 61.488ZM244.8 78.624Q241.776 84.096 242.856 85.464C243.576 86.376 245.856 85.92 249.696 84.096Q253.44 82.368 257.256 79.704Q261.072 77.04 264.6 74.088Q268.128 71.136 271.44 68.112Q274.752 65.088 277.632 62.64Q278.928 61.488 279.936 62.424Q280.944 63.36 280.368 64.8Q279.648 66.528 278.712 69.336Q277.776 72.144 277.344 75.024Q276.912 77.904 277.56 80.28Q278.208 82.656 280.656 83.52Q283.824 84.672 287.424 83.952Q291.024 83.232 294.696 81.504Q298.368 79.776 301.752 77.76Q305.136 75.744 307.872 74.304Q309.312 73.584 309.96 74.88Q310.608 76.176 309.024 77.328Q306.144 79.488 301.968 81.792Q297.792 84.096 293.256 85.752Q288.72 87.408 284.472 87.912Q280.224 88.416 277.416 86.832Q274.608 85.248 273.744 81.216Q272.88 77.184 275.184 69.84Q273.888 70.848 271.224 73.08Q268.56 75.312 265.176 77.904Q261.792 80.496 258.048 83.088Q254.304 85.68 250.848 87.408Q247.392 89.136 244.512 89.568Q241.632 90 240.048 88.272Q238.32 86.4 238.68 83.664Q239.04 80.928 240.768 77.76Q242.496 74.592 245.16 71.352Q247.824 68.112 250.704 65.376Q253.584 62.64 256.176 60.552Q258.768 58.464 260.352 57.744Q261.936 57.024 262.656 58.32Q263.376 59.616 262.08 60.624Q260.064 62.064 257.616 64.08Q255.168 66.096 252.792 68.472Q250.416 70.848 248.328 73.44Q246.24 76.032 244.8 78.624Z" />
    </g>
  </g>
</svg>