<svg xmlns="http://www.w3.org/2000/svg" viewBox="0 0 490 180" xmlns:xlink="http://www.w3.org/1999/xlink"><defs><clipPath id="b"><use fill-rule="evenodd" clip-rule="evenodd" href="#a"/></clipPath><path id="a" d="M0 0h490v180H0z"/></defs><g clip-path="url(#b)"><path fill="#FFF" d="M89 109.7q-2.6-1.5-8.3-3.1t-13-3.3l-14.5-3.9q-7.4-2-13.4-4.6t-9.5-5.9-2.7-7.5q.6-3.2 4.5-6.3 3.9-3.2 9.8-6 5.9-3 13.4-5.4t15.3-4.3 15.6-2.9 14-1q6.5-.2 11 1 4.7 1.2 6.3 3.6 1 1.7 1.1 3.6t-.3 3.7-1.5 3.4-2.4 3q-1.7 1.7-5 4l-7.5 5-8.8 5q-4.6 2.5-9 4.6t-8 3.6-6 1.7q-1.9.3-2.3-1.2-.4-1.4 1.3-2.3 1.6-.8 3.7-1.3 2-.5 3.8-1.3 2-.7 5.6-2.3l7.8-3.8q4.1-2 8.5-4.7 4.4-2.6 8-5.2 3.6-2.7 6-5.3t2.7-4.9q.1-1.6-.3-2.8t-1.7-2q-1.5-.8-3.1-1h-3.3q-17-.5-33 2.6-16 3-31.2 10.6l-3 1.4-3.2 1.9q-1.6 1-3 2.2t-1.9 2.5q-1.6 3.3 1.8 6.2 3.4 2.8 9.4 5.1 6 2.4 13.6 4.4l14.6 3.9 12.6 3.4q5.5 1.6 7.2 3 3 2.6 1.6 6.5-.7 2-2 3.1-1.4 1.3-3.1 2.2t-3.5 1.6-3.5 1.3q-12.4 4.9-24.7 8.9-12.4 4-25.4 7-1.4.5-4.2 1l-6.3 1.4-7.3 1.4-7.1 1.2-6 1q-2.6.3-3.8.1-.7 0-1.1-.6t-.5-1.4 1.4-1.3l3-.7 3.5-.4 2.3-.2q17.5-2 35-7 17.6-5 34-11.1 1-.5 4.1-1.5 3.1-1.1 6.2-2.6t5-3.3.7-3.6m31.1-8.2q-3 4.6-5.1 8.2t-2.5 6 1.2 3.3 5.5.1 7.5-2.2 7.2-3.2 7-3.9l7.7-4.1q.6-.3 1.2 0t.8.9.2 1.3-1 1.1q-4.3 2.5-7.9 4.3-3.5 2-6.7 3.4l-6.5 2.8-7.4 2.8q-4.2 1.5-8 .5t-4.2-4.1.8-7q1.3-3.8 3.6-7.4 2.3-3.5 4-5 1-1 2.3-.1t.2 2.3m4.2-6.9q-1.2 1.2-2.3.2-1.2-1-.2-2.5 1.3-1.6 3.2-2.9.9-.8 1.8-.4t1.2 1.2-1 2.1l-1.3 1.2zm56-24.8q-4 4.5-7.8 9.1l-7.8 9.2-8.2 10.3-10.7 13.8-10.4 13.7-8 10.4q-3.3 3.7-6.5 8.3-3.2 4.5-6.8 7.8-.6.4-1.3.6t-1.1-.6q-.9-.6-.7-1.1t.7-1.2q2.8-3.9 6.9-9l8.5-11q4.4-6 9.3-12.1l9.3-12 8.7-10.7 7-9q-.4-.6-.6-1.4-.2-.9 1-1.2 1.4-1 1.8-2.6t0-3.1q-.4-1.8-2-3.2-1.5-1.5-3.3-2.5-1.9-1.1-4-1.8-2-.8-3.7-1.2-4.7-1.2-9.7-.8t-9.8-.3q-1.5-.1-1.6-1.6l1.1-1.9q3.2.3 6.3 0 3-.4 6.4-.1 8.8.7 17.6 1l17.5.5q1.8-1.5 2.5-2.3l1.5-1.5 1.4-1.5 2.1-2.6L192 51q3.2-3.9 6.6-7 1.3-1 2.3 0t.2 2.5q-1.2 1.7-3.5 4.3l-5 5.2-5.3 5.4q-2.8 2.7-4.7 4.8l3.8.3 8 .3 10.4.1 10 .3q4.6.2 7 .7 1.7.3 1.8 1.8 0 1.6-1.8 1.9l-4.7.1-7-.2-8.2-.4-8.6-.5-7.6-.5zm-20.7-.5q3 1.1 5.4 4 2.3 2.9 2.3 6.2l8.2-9.7q-3.8-.5-8-.5zm85.5 39.4-1.7 1.5-2.2 1.4-5.2 3.4q-2.9 1.8-6 3.4-3.2 1.6-6.4 2.8t-6.3 1.5q-2.7.3-5.3-.7t-4.5-3q-2.1-2.7-2-5.7t.7-5.5l1.2-4.5q.5-2.2-1.1-3.5-1.3-1-4.2-.3t-6 2.1-6.2 3-4.2 2.4q-5.2 3.2-9.4 7t-9 7.1q-1.3 1-2.5 0t-.4-2.1q.3-.8 1-1.6l1.3-1.5q2-2.7 4-5.9 1.9-3.1 4.3-7.5-1.4-.8-1.2-1.6t1-1.5q1-.8 2.2-1.3l1.8-.7q6.9-9.1 14.2-17.8 7.4-8.6 15.4-16.5t17-14.8 19-12.4l3.3-1.8q1.8-1 3.7-1.7t4-1q1.9-.1 3.6.7 1 .5 1 1.7 0 2.5-1.2 5t-2.8 4.8-3.8 4.4-3.7 3.6Q232.7 65.2 216 77.9t-35.2 22.3l-6.3 10 3.8-2.8 5.7-3.6 6.7-3.6q3.4-1.7 6.7-2.8 3.2-1.2 5.9-1.5 2.6-.3 4.2.7 3 2 3.3 4.5.2 2.4-.5 5.1l-1.2 5.3q-.6 2.6.7 4.7 1.5 2.2 3.7 2.7t4.5 0q3.3-.5 7.8-2.5t11-6l3.2-2.3 3-2.3q1.5-.8 2.4.4t-.3 2.5m-58.9-15.8q7.6-3.8 15.6-9 8-5.4 15.9-11.5 7.8-6 15.2-12.3l14-11.9q2.8-2.5 5.6-5.7t3.5-7.4q-.8-.2-2 0-1.3.3-2.5.8l-2.2 1.1-1.8 1q-8 5-16 10.6-8 5.7-15.5 12.1t-14.3 13.5T189.3 89l-1.4 2zm108.6 14.4q-3 .4-6.7-.3t-6.1-3.2q-1.6-1.6-3-3.7l-3.5-4.8q-.9-1.1-2-1.7t-3-.1q-2.6.5-6 2.5-3.3 2-7 4.7-3.6 2.7-7.4 5.9l-7.2 6.2-6.6 5.9-5.2 4.6q-1.6 1.3-2.6.1-1.1-1.1 0-2.7 1.5-2 3.4-3.8 2-1.8 3.6-3.7 2.7-2.9 5.6-6.6l6-7.6 6-7.3q3-3.4 5.5-5.9.6-.5 1.2-.5t1 .3.6 1.1-.5 1.6q-1.4 2-3 3.9t-3.3 3.9l-3 3.6-3.3 3.7q9.2-6.6 14.7-9.8t8.5-3.7 4.4.7 2.5 3.4l2.5 4.5q1.4 2.3 4.6 4 1.1.6 3 1 1.7.5 6.8 1 .7 0 1 .4t.3 1.2q-.3.9-2 1.2m2.1 2.7q-3 5.5-1.9 6.9 1 1.3 6.8-1.4 3.8-1.7 7.6-4.4t7.3-5.6l6.9-6 6.2-5.5q1.3-1.1 2.3-.2t.4 2.4l-1.6 4.5q-1 2.8-1.4 5.7t.2 5.3 3.1 3.2q3.2 1.2 6.8.5 3.6-.8 7.2-2.5 3.7-1.7 7-3.7l6.2-3.5q1.5-.7 2.1.6t-1 2.4q-2.8 2.2-7 4.5t-8.7 4-8.8 2.1q-4.2.5-7-1-2.9-1.7-3.7-5.7t1.4-11.4l-4 3.3-6 4.8-7.1 5.2q-3.8 2.6-7.2 4.3t-6.3 2.2-4.5-1.3q-1.7-1.9-1.4-4.6.4-2.8 2.1-6 1.7-3.1 4.4-6.3 2.7-3.3 5.5-6 3-2.8 5.5-4.8 2.6-2.1 4.2-2.9t2.3.6-.6 2.3l-4.4 3.5q-2.5 2-4.9 4.4-2.3 2.3-4.4 5-2.1 2.5-3.6 5.1m72.6-.3 1.5-1.7q7-7 13.9-14.4 6.8-7.3 13.4-14.8l5.7-6.9 7.6-9.3 7.3-8.8q3.5-4.1 5-5.4.5-.3 1.3-.4.8 0 1.2.4.7.7-1.2 3.5t-4.5 6.1l-5.2 6.4-3.5 4q-8.8 10.4-18 20.2l-18.2 19.8q4.6-3.6 9.7-6.5 5.1-3 10.1-5.6l4.4-2q2.7-1.3 5.4-1.8 2.6-.5 5 .2 2.2.6 3.4 3.5.6 1.4.2 3.4t-1 3.2q-2.2 5.5-7 9.1t-10.6 5.2-12 1q-6-.4-11-3l-7.2 6q-3.7 3-7.6 5.6-1.3 1.2-2.4 0-.7-.5-.6-1.2t.6-1.2q2.7-3.3 6-6.2t6-6l-2.5-2q-1.9-1.4-3.8-3.1t-3-3.3.2-2.3q.4-.9 1-.7l1.3.7q2.4 2 4.4 4.2t5 4.1m6 3q7.1 3 15 1.9 7.7-1.2 13.5-6.2.7-.5 2.3-2.3t2.7-4 1.3-3.7-1.7-2.5q-2.3-.9-7 1.2-4.7 2-9.8 5t-9.6 6.1zm97.3-9.3q-1.2 3.9-3.3 8t-4.2 7.8l6-3.8 6.4-4q3.3-2 6.2-3.5 2.8-1.5 4.6-2.2.7-.3 1.3 0 .7.1.8.9.7.7.2 1.2l-1 .8q-6.2 3.6-13.9 7.8-7.6 4.1-14.4 8.9l-4.1 5.9q-5.8 7.5-12.2 14.3T432 158.7l-8.5 7.4q-4.3 3.7-9 7-6.7 5-10.8 6.4-4 1.4-5 0-1-1.5 1.2-5.4 2.1-3.9 7.7-9.5 4.8-4.6 10.3-9.4 5.4-4.7 11.1-9.3l11.2-9 10.2-8.2q2.4-2 5.3-4 3-1.9 5-4 1-1.2 2.7-4 1.5-2.6 3-5.7 1.4-3.1 2.4-6 1-3 1-4.6 0-1.3-1.3-1.1t-3 1.1l-3.1 2-2 1.4-4.7 3.2-6.7 4.3q-3.8 2.3-7.9 4.5-4 2.1-7.8 3.7-3.8 1.5-6.8 1.8t-4.8-1q-2.3-1.8-1.8-6t2.6-8.8 5-8.4 5.2-4.6q1.6-.6 2.1.7.6 1.4-.4 2.6-2.1 1.1-5 4.8-2.8 3.7-4.5 7.7-3 7.3-.8 9.2t9.3-1.4l6-3 6.2-3.8 6.4-4.1q3.2-2 5.9-4.1 12.5-9 15.1-2.7.4.8.3 2.1zm-62.7 64q-4.2 4.1-5.3 5.8-1.2 1.8-.4 1.8t3.1-1.4 5-3.5q10.9-8.8 21.3-18.3t19-20.5l-7.3 5.9q-5.1 4-11.3 9.2L421.6 157q-6.5 5.6-11.4 10.3"/></g></svg>